<svg id="visual" viewBox="0 0 900 450" width="900" height="450" xmlns="http://www.w3.org/2000/svg" xmlns:xlink="http://www.w3.org/1999/xlink" version="1.1"><rect x="0" y="0" width="900" height="450" fill="#353531"></rect><path d="M271 450L268 450L268 409L323 409L323 368L322 368L322 327L282 327L282 286L408 286L408 245L247 245L247 205L378 205L378 164L338 164L338 123L356 123L356 82L343 82L343 41L336 41L336 0L900 0L900 41L900 41L900 82L900 82L900 123L900 123L900 164L900 164L900 205L900 205L900 245L900 245L900 286L900 286L900 327L900 327L900 368L900 368L900 409L900 409L900 450L900 450Z" fill="#222222"></path><path d="M397 450L502 450L502 409L418 409L418 368L372 368L372 327L499 327L499 286L348 286L348 245L503 245L503 205L422 205L422 164L436 164L436 123L457 123L457 82L398 82L398 41L488 41L488 0L900 0L900 41L900 41L900 82L900 82L900 123L900 123L900 164L900 164L900 205L900 205L900 245L900 245L900 286L900 286L900 327L900 327L900 368L900 368L900 409L900 409L900 450L900 450Z" fill="#2d272c"></path><path d="M543 450L553 450L553 409L556 409L556 368L444 368L444 327L532 327L532 286L450 286L450 245L442 245L442 205L563 205L563 164L425 164L425 123L421 123L421 82L476 82L476 41L436 41L436 0L900 0L900 41L900 41L900 82L900 82L900 123L900 123L900 164L900 164L900 205L900 205L900 245L900 245L900 286L900 286L900 327L900 327L900 368L900 368L900 409L900 409L900 450L900 450Z" fill="#372d36"></path><path d="M610 450L558 450L558 409L541 409L541 368L591 368L591 327L610 327L610 286L578 286L578 245L611 245L611 205L547 205L547 164L571 164L571 123L611 123L611 82L489 82L489 41L518 41L518 0L900 0L900 41L900 41L900 82L900 82L900 123L900 123L900 164L900 164L900 205L900 205L900 245L900 245L900 286L900 286L900 327L900 327L900 368L900 368L900 409L900 409L900 450L900 450Z" fill="#423241"></path><path d="M612 450L611 450L611 409L610 409L610 368L575 368L575 327L615 327L615 286L561 286L561 245L686 245L686 205L655 205L655 164L673 164L673 123L564 123L564 82L555 82L555 41L609 41L609 0L900 0L900 41L900 41L900 82L900 82L900 123L900 123L900 164L900 164L900 205L900 205L900 245L900 245L900 286L900 286L900 327L900 327L900 368L900 368L900 409L900 409L900 450L900 450Z" fill="#4e384b"></path><path d="M640 450L739 450L739 409L686 409L686 368L678 368L678 327L692 327L692 286L731 286L731 245L696 245L696 205L683 205L683 164L733 164L733 123L660 123L660 82L731 82L731 41L640 41L640 0L900 0L900 41L900 41L900 82L900 82L900 123L900 123L900 164L900 164L900 205L900 205L900 245L900 245L900 286L900 286L900 327L900 327L900 368L900 368L900 409L900 409L900 450L900 450Z" fill="#593d56"></path><path d="M729 450L796 450L796 409L786 409L786 368L715 368L715 327L786 327L786 286L762 286L762 245L802 245L802 205L794 205L794 164L734 164L734 123L702 123L702 82L711 82L711 41L770 41L770 0L900 0L900 41L900 41L900 82L900 82L900 123L900 123L900 164L900 164L900 205L900 205L900 245L900 245L900 286L900 286L900 327L900 327L900 368L900 368L900 409L900 409L900 450L900 450Z" fill="#654362"></path><path d="M811 450L826 450L826 409L838 409L838 368L842 368L842 327L808 327L808 286L852 286L852 245L790 245L790 205L847 205L847 164L842 164L842 123L828 123L828 82L788 82L788 41L795 41L795 0L900 0L900 41L900 41L900 82L900 82L900 123L900 123L900 164L900 164L900 205L900 205L900 245L900 245L900 286L900 286L900 327L900 327L900 368L900 368L900 409L900 409L900 450L900 450Z" fill="#71486d"></path></svg>