<svg id="visual" viewBox="0 0 900 450" width="900" height="450" xmlns="http://www.w3.org/2000/svg" xmlns:xlink="http://www.w3.org/1999/xlink" version="1.1"><g stroke-width="0.4" stroke-linejoin="bevel"><path d="M492.3 201.1L506.3 183.9L479.3 169.6Z" fill="#2d2d2b" stroke="#71486d"></path><path d="M506.3 183.9L480 152.6L479.3 169.6Z" fill="#33332f" stroke="#71486d"></path><path d="M506.3 183.9L506.6 128.6L480 152.6Z" fill="#272726" stroke="#71486d"></path><path d="M457 265.9L505 245.4L492.3 201.1Z" fill="#2b2b29" stroke="#71486d"></path><path d="M492.3 201.1L505 245.4L506.3 183.9Z" fill="#242423" stroke="#71486d"></path><path d="M480 152.6L406 179.1L479.3 169.6Z" fill="#2b2b29" stroke="#71486d"></path><path d="M479.3 169.6L406 179.1L492.3 201.1Z" fill="#2d2d2b" stroke="#71486d"></path><path d="M396.7 171.6L406 179.1L480 152.6Z" fill="#353531" stroke="#71486d"></path><path d="M406 179.1L457 265.9L492.3 201.1Z" fill="#2d2d2b" stroke="#71486d"></path><path d="M387.4 104.3L396.7 171.6L480 152.6Z" fill="#353531" stroke="#71486d"></path><path d="M406 179.1L394.4 182.1L457 265.9Z" fill="#31312e" stroke="#71486d"></path><path d="M613.6 204.1L568.6 135.9L506.3 183.9Z" fill="#31312e" stroke="#71486d"></path><path d="M506.3 183.9L568.6 135.9L506.6 128.6Z" fill="#2d2d2b" stroke="#71486d"></path><path d="M396.7 171.6L394.4 182.1L406 179.1Z" fill="#2b2b29" stroke="#71486d"></path><path d="M377.7 276.4L459.3 292.4L457 265.9Z" fill="#242423" stroke="#71486d"></path><path d="M457 265.9L459.3 292.4L505 245.4Z" fill="#2f2f2c" stroke="#71486d"></path><path d="M624.1 268.1L613.6 204.1L505 245.4Z" fill="#222222" stroke="#71486d"></path><path d="M505 245.4L613.6 204.1L506.3 183.9Z" fill="#262625" stroke="#71486d"></path><path d="M449.3 0L387.4 104.3L506.6 128.6Z" fill="#353531" stroke="#71486d"></path><path d="M506.6 128.6L387.4 104.3L480 152.6Z" fill="#262625" stroke="#71486d"></path><path d="M396.7 171.6L345.4 139.6L394.4 182.1Z" fill="#262625" stroke="#71486d"></path><path d="M312.1 249.4L377.7 276.4L394.4 182.1Z" fill="#33332f" stroke="#71486d"></path><path d="M394.4 182.1L377.7 276.4L457 265.9Z" fill="#292928" stroke="#71486d"></path><path d="M387.4 104.3L345.4 139.6L396.7 171.6Z" fill="#272726" stroke="#71486d"></path><path d="M601.9 299.7L624.1 268.1L505 245.4Z" fill="#353531" stroke="#71486d"></path><path d="M459.3 292.4L601.9 299.7L505 245.4Z" fill="#33332f" stroke="#71486d"></path><path d="M345.4 139.6L317.7 184.9L394.4 182.1Z" fill="#222222" stroke="#71486d"></path><path d="M656.6 99.3L632.1 86.6L568.6 135.9Z" fill="#262625" stroke="#71486d"></path><path d="M520 0L511.6 0L506.6 128.6Z" fill="#262625" stroke="#71486d"></path><path d="M668.9 163.1L568.6 135.9L613.6 204.1Z" fill="#31312e" stroke="#71486d"></path><path d="M601.9 299.7L630.9 286.4L624.1 268.1Z" fill="#222222" stroke="#71486d"></path><path d="M690.9 246.9L668.9 163.1L613.6 204.1Z" fill="#272726" stroke="#71486d"></path><path d="M662.1 258.4L613.6 204.1L624.1 268.1Z" fill="#292928" stroke="#71486d"></path><path d="M394.7 349.1L420 351.7L377.7 276.4Z" fill="#242423" stroke="#71486d"></path><path d="M377.7 276.4L420 351.7L459.3 292.4Z" fill="#2f2f2c" stroke="#71486d"></path><path d="M459.3 292.4L504.6 386.7L601.9 299.7Z" fill="#292928" stroke="#71486d"></path><path d="M520 0L506.6 128.6L568.6 135.9Z" fill="#353531" stroke="#71486d"></path><path d="M632.1 86.6L520 0L568.6 135.9Z" fill="#33332f" stroke="#71486d"></path><path d="M668.9 163.1L656.6 99.3L568.6 135.9Z" fill="#222222" stroke="#71486d"></path><path d="M632.1 86.6L638.9 0L520 0Z" fill="#292928" stroke="#71486d"></path><path d="M511.6 0L449.3 0L506.6 128.6Z" fill="#353531" stroke="#71486d"></path><path d="M387.4 104.3L295.1 68.6L345.4 139.6Z" fill="#31312e" stroke="#71486d"></path><path d="M317.7 184.9L312.1 249.4L394.4 182.1Z" fill="#242423" stroke="#71486d"></path><path d="M630.9 286.4L662.1 258.4L624.1 268.1Z" fill="#2d2d2b" stroke="#71486d"></path><path d="M332.1 350.1L394.7 349.1L377.7 276.4Z" fill="#2f2f2c" stroke="#71486d"></path><path d="M449.3 0L415.7 0L387.4 104.3Z" fill="#292928" stroke="#71486d"></path><path d="M345.4 139.6L221.9 153.3L317.7 184.9Z" fill="#222222" stroke="#71486d"></path><path d="M415.7 0L396 8.3L387.4 104.3Z" fill="#2b2b29" stroke="#71486d"></path><path d="M515.3 438.7L504.6 386.7L484.3 450Z" fill="#2f2f2c" stroke="#71486d"></path><path d="M420 351.7L504.6 386.7L459.3 292.4Z" fill="#2b2b29" stroke="#71486d"></path><path d="M601.9 299.7L654.6 340.4L630.9 286.4Z" fill="#262625" stroke="#71486d"></path><path d="M722.4 221.4L697.1 163.3L668.9 163.1Z" fill="#292928" stroke="#71486d"></path><path d="M668.9 163.1L699.9 108.6L656.6 99.3Z" fill="#33332f" stroke="#71486d"></path><path d="M312.1 249.4L317.4 307.4L377.7 276.4Z" fill="#242423" stroke="#71486d"></path><path d="M713.1 288.9L690.9 246.9L662.1 258.4Z" fill="#353531" stroke="#71486d"></path><path d="M662.1 258.4L690.9 246.9L613.6 204.1Z" fill="#262625" stroke="#71486d"></path><path d="M713.1 288.9L662.1 258.4L630.9 286.4Z" fill="#33332f" stroke="#71486d"></path><path d="M511.6 0L470.3 -30.7L449.3 0Z" fill="#272726" stroke="#71486d"></path><path d="M449.3 0L470.3 -30.7L415.7 0Z" fill="#292928" stroke="#71486d"></path><path d="M415.7 0L360.7 -22.7L396 8.3Z" fill="#272726" stroke="#71486d"></path><path d="M520 0L470.3 -30.7L511.6 0Z" fill="#2f2f2c" stroke="#71486d"></path><path d="M317.7 184.9L287.4 266.9L312.1 249.4Z" fill="#353531" stroke="#71486d"></path><path d="M312.1 249.4L287.4 266.9L317.4 307.4Z" fill="#272726" stroke="#71486d"></path><path d="M697.1 163.3L699.9 108.6L668.9 163.1Z" fill="#292928" stroke="#71486d"></path><path d="M667.9 11.3L638.9 0L632.1 86.6Z" fill="#242423" stroke="#71486d"></path><path d="M520 0L638.9 0L470.3 -30.7Z" fill="#222222" stroke="#71486d"></path><path d="M396 8.3L295.1 68.6L387.4 104.3Z" fill="#222222" stroke="#71486d"></path><path d="M317.7 184.9L211.1 237.9L287.4 266.9Z" fill="#353531" stroke="#71486d"></path><path d="M504.6 386.7L654.6 340.4L601.9 299.7Z" fill="#2b2b29" stroke="#71486d"></path><path d="M268.9 394.4L332.1 350.1L317.4 307.4Z" fill="#353531" stroke="#71486d"></path><path d="M317.4 307.4L332.1 350.1L377.7 276.4Z" fill="#222222" stroke="#71486d"></path><path d="M443 450L504.6 386.7L420 351.7Z" fill="#272726" stroke="#71486d"></path><path d="M690.9 246.9L722.4 221.4L668.9 163.1Z" fill="#2f2f2c" stroke="#71486d"></path><path d="M697.1 163.3L735.4 173.6L699.9 108.6Z" fill="#2f2f2c" stroke="#71486d"></path><path d="M713.1 288.9L722.4 221.4L690.9 246.9Z" fill="#2b2b29" stroke="#71486d"></path><path d="M667.9 11.3L632.1 86.6L656.6 99.3Z" fill="#262625" stroke="#71486d"></path><path d="M268.9 394.4L337.4 372.7L332.1 350.1Z" fill="#353531" stroke="#71486d"></path><path d="M332.1 350.1L337.4 372.7L394.7 349.1Z" fill="#2f2f2c" stroke="#71486d"></path><path d="M470.3 -30.7L360.7 -22.7L415.7 0Z" fill="#242423" stroke="#71486d"></path><path d="M396 8.3L360.7 -22.7L295.1 68.6Z" fill="#353531" stroke="#71486d"></path><path d="M722.4 221.4L735.4 173.6L697.1 163.3Z" fill="#31312e" stroke="#71486d"></path><path d="M654.6 340.4L713.1 288.9L630.9 286.4Z" fill="#31312e" stroke="#71486d"></path><path d="M722.4 221.4L782.4 249.1L735.4 173.6Z" fill="#272726" stroke="#71486d"></path><path d="M757.7 0L667.9 11.3L699.9 108.6Z" fill="#262625" stroke="#71486d"></path><path d="M699.9 108.6L667.9 11.3L656.6 99.3Z" fill="#242423" stroke="#71486d"></path><path d="M484.3 450L504.6 386.7L443 450Z" fill="#2f2f2c" stroke="#71486d"></path><path d="M504.6 386.7L618.9 450L654.6 340.4Z" fill="#33332f" stroke="#71486d"></path><path d="M443 450L420 351.7L394.7 349.1Z" fill="#222222" stroke="#71486d"></path><path d="M175.1 120.3L221.9 153.3L295.1 68.6Z" fill="#2b2b29" stroke="#71486d"></path><path d="M295.1 68.6L221.9 153.3L345.4 139.6Z" fill="#242423" stroke="#71486d"></path><path d="M287.4 266.9L268.9 394.4L317.4 307.4Z" fill="#31312e" stroke="#71486d"></path><path d="M355.7 450L443 450L394.7 349.1Z" fill="#292928" stroke="#71486d"></path><path d="M484.3 450L541.6 450L515.3 438.7Z" fill="#2b2b29" stroke="#71486d"></path><path d="M515.3 438.7L541.6 450L504.6 386.7Z" fill="#222222" stroke="#71486d"></path><path d="M654.6 340.4L759.7 327.7L713.1 288.9Z" fill="#31312e" stroke="#71486d"></path><path d="M221.9 153.3L211.1 237.9L317.7 184.9Z" fill="#353531" stroke="#71486d"></path><path d="M360.7 -22.7L273.1 0L295.1 68.6Z" fill="#222222" stroke="#71486d"></path><path d="M541.6 450L618.9 450L504.6 386.7Z" fill="#262625" stroke="#71486d"></path><path d="M344.4 450L355.7 450L337.4 372.7Z" fill="#242423" stroke="#71486d"></path><path d="M337.4 372.7L355.7 450L394.7 349.1Z" fill="#31312e" stroke="#71486d"></path><path d="M360.7 -22.7L253.4 0L273.1 0Z" fill="#292928" stroke="#71486d"></path><path d="M273.1 0L253.4 0L295.1 68.6Z" fill="#242423" stroke="#71486d"></path><path d="M618.9 450L674.1 420.7L654.6 340.4Z" fill="#242423" stroke="#71486d"></path><path d="M713.1 288.9L782.4 249.1L722.4 221.4Z" fill="#262625" stroke="#71486d"></path><path d="M777.1 0L757.7 0L699.9 108.6Z" fill="#33332f" stroke="#71486d"></path><path d="M783.4 267.9L782.4 249.1L713.1 288.9Z" fill="#31312e" stroke="#71486d"></path><path d="M268.9 394.4L344.4 450L337.4 372.7Z" fill="#222222" stroke="#71486d"></path><path d="M156.3 283.4L268.9 394.4L287.4 266.9Z" fill="#353531" stroke="#71486d"></path><path d="M777.4 305.7L783.4 267.9L713.1 288.9Z" fill="#292928" stroke="#71486d"></path><path d="M618.9 450L641.1 450L674.1 420.7Z" fill="#31312e" stroke="#71486d"></path><path d="M674.1 420.7L759.7 327.7L654.6 340.4Z" fill="#353531" stroke="#71486d"></path><path d="M759.7 327.7L777.4 305.7L713.1 288.9Z" fill="#2d2d2b" stroke="#71486d"></path><path d="M181.6 29.3L175.1 120.3L295.1 68.6Z" fill="#31312e" stroke="#71486d"></path><path d="M221.9 153.3L161.6 188.1L211.1 237.9Z" fill="#31312e" stroke="#71486d"></path><path d="M783.4 267.9L807.7 232.1L782.4 249.1Z" fill="#2d2d2b" stroke="#71486d"></path><path d="M782.4 249.1L807.7 232.1L735.4 173.6Z" fill="#292928" stroke="#71486d"></path><path d="M853.7 230.9L807.7 232.1L783.4 267.9Z" fill="#242423" stroke="#71486d"></path><path d="M814.7 159.3L699.9 108.6L735.4 173.6Z" fill="#353531" stroke="#71486d"></path><path d="M667.9 11.3L757.7 0L638.9 0Z" fill="#272726" stroke="#71486d"></path><path d="M638.9 0L826.4 -29.7L470.3 -30.7Z" fill="#31312e" stroke="#71486d"></path><path d="M807.7 232.1L814.7 159.3L735.4 173.6Z" fill="#222222" stroke="#71486d"></path><path d="M175.1 120.3L161.6 188.1L221.9 153.3Z" fill="#353531" stroke="#71486d"></path><path d="M211.1 237.9L156.3 283.4L287.4 266.9Z" fill="#292928" stroke="#71486d"></path><path d="M128.6 226.9L152.9 224.1L161.6 188.1Z" fill="#222222" stroke="#71486d"></path><path d="M161.6 188.1L152.9 224.1L211.1 237.9Z" fill="#2b2b29" stroke="#71486d"></path><path d="M814.7 159.3L777.1 0L699.9 108.6Z" fill="#242423" stroke="#71486d"></path><path d="M757.7 0L826.4 -29.7L638.9 0Z" fill="#33332f" stroke="#71486d"></path><path d="M360.7 -22.7L198.9 0L253.4 0Z" fill="#2f2f2c" stroke="#71486d"></path><path d="M253.4 0L181.6 29.3L295.1 68.6Z" fill="#2b2b29" stroke="#71486d"></path><path d="M175.1 120.3L134.3 133.9L161.6 188.1Z" fill="#2d2d2b" stroke="#71486d"></path><path d="M198.9 0L181.6 29.3L253.4 0Z" fill="#2b2b29" stroke="#71486d"></path><path d="M226.9 450L270.1 450L268.9 394.4Z" fill="#31312e" stroke="#71486d"></path><path d="M268.9 394.4L270.1 450L344.4 450Z" fill="#272726" stroke="#71486d"></path><path d="M270.1 450L303.7 475.7L344.4 450Z" fill="#292928" stroke="#71486d"></path><path d="M344.4 450L303.7 475.7L355.7 450Z" fill="#2d2d2b" stroke="#71486d"></path><path d="M355.7 450L303.7 475.7L443 450Z" fill="#31312e" stroke="#71486d"></path><path d="M443 450L303.7 475.7L484.3 450Z" fill="#292928" stroke="#71486d"></path><path d="M484.3 450L303.7 475.7L541.6 450Z" fill="#31312e" stroke="#71486d"></path><path d="M541.6 450L303.7 475.7L618.9 450Z" fill="#33332f" stroke="#71486d"></path><path d="M618.9 450L303.7 475.7L641.1 450Z" fill="#272726" stroke="#71486d"></path><path d="M181.6 29.3L152.6 98.6L175.1 120.3Z" fill="#242423" stroke="#71486d"></path><path d="M152.9 224.1L156.3 283.4L211.1 237.9Z" fill="#272726" stroke="#71486d"></path><path d="M915.7 275.4L853.7 230.9L900 346.1Z" fill="#353531" stroke="#71486d"></path><path d="M777.4 305.7L853.7 230.9L783.4 267.9Z" fill="#222222" stroke="#71486d"></path><path d="M674.1 420.7L723.4 450L759.7 327.7Z" fill="#242423" stroke="#71486d"></path><path d="M641.1 450L723.4 450L674.1 420.7Z" fill="#242423" stroke="#71486d"></path><path d="M303.7 475.7L723.4 450L641.1 450Z" fill="#353531" stroke="#71486d"></path><path d="M814.7 159.3L793.4 0L777.1 0Z" fill="#242423" stroke="#71486d"></path><path d="M777.1 0L826.4 -29.7L757.7 0Z" fill="#31312e" stroke="#71486d"></path><path d="M112.9 188.9L134.3 133.9L15.3 140.3Z" fill="#33332f" stroke="#71486d"></path><path d="M152.6 98.6L134.3 133.9L175.1 120.3Z" fill="#2f2f2c" stroke="#71486d"></path><path d="M152.9 224.1L128.6 226.9L156.3 283.4Z" fill="#33332f" stroke="#71486d"></path><path d="M112.9 188.9L128.6 226.9L161.6 188.1Z" fill="#292928" stroke="#71486d"></path><path d="M270.1 450L226.9 450L303.7 475.7Z" fill="#242423" stroke="#71486d"></path><path d="M156.3 283.4L211.9 418.7L268.9 394.4Z" fill="#292928" stroke="#71486d"></path><path d="M172.1 463.7L211.9 418.7L153.6 460.7Z" fill="#33332f" stroke="#71486d"></path><path d="M807.7 232.1L853.7 230.9L814.7 159.3Z" fill="#292928" stroke="#71486d"></path><path d="M814.7 159.3L900 101.9L793.4 0Z" fill="#2b2b29" stroke="#71486d"></path><path d="M900 250.4L853.7 230.9L915.7 275.4Z" fill="#242423" stroke="#71486d"></path><path d="M211.9 418.7L226.9 450L268.9 394.4Z" fill="#272726" stroke="#71486d"></path><path d="M853.7 230.9L863.7 173.6L814.7 159.3Z" fill="#33332f" stroke="#71486d"></path><path d="M134.3 133.9L112.9 188.9L161.6 188.1Z" fill="#222222" stroke="#71486d"></path><path d="M112.9 188.9L102.9 222.6L128.6 226.9Z" fill="#353531" stroke="#71486d"></path><path d="M128.6 226.9L67.6 253.4L156.3 283.4Z" fill="#242423" stroke="#71486d"></path><path d="M211.9 418.7L172.1 463.7L226.9 450Z" fill="#222222" stroke="#71486d"></path><path d="M181.6 29.3L146.6 0L152.6 98.6Z" fill="#2f2f2c" stroke="#71486d"></path><path d="M23.3 197.1L102.9 222.6L112.9 188.9Z" fill="#33332f" stroke="#71486d"></path><path d="M23.3 197.1L67.6 253.4L102.9 222.6Z" fill="#292928" stroke="#71486d"></path><path d="M198.9 0L146.6 0L181.6 29.3Z" fill="#31312e" stroke="#71486d"></path><path d="M360.7 -22.7L146.6 0L198.9 0Z" fill="#2d2d2b" stroke="#71486d"></path><path d="M900 0L826.4 -29.7L793.4 0Z" fill="#262625" stroke="#71486d"></path><path d="M793.4 0L826.4 -29.7L777.1 0Z" fill="#33332f" stroke="#71486d"></path><path d="M853.7 230.9L900 250.4L863.7 173.6Z" fill="#262625" stroke="#71486d"></path><path d="M863.7 173.6L900 114.6L814.7 159.3Z" fill="#33332f" stroke="#71486d"></path><path d="M853.7 230.9L777.4 305.7L900 346.1Z" fill="#31312e" stroke="#71486d"></path><path d="M900 250.4L900 114.6L863.7 173.6Z" fill="#353531" stroke="#71486d"></path><path d="M900 114.6L900 101.9L814.7 159.3Z" fill="#262625" stroke="#71486d"></path><path d="M153.6 460.7L211.9 418.7L122.6 450Z" fill="#353531" stroke="#71486d"></path><path d="M226.9 450L172.1 463.7L303.7 475.7Z" fill="#2b2b29" stroke="#71486d"></path><path d="M23.3 185.6L112.9 188.9L15.3 140.3Z" fill="#292928" stroke="#71486d"></path><path d="M102.9 222.6L67.6 253.4L128.6 226.9Z" fill="#292928" stroke="#71486d"></path><path d="M80.3 377.7L211.9 418.7L156.3 283.4Z" fill="#222222" stroke="#71486d"></path><path d="M900 250.4L915.7 275.4L900 114.6Z" fill="#2b2b29" stroke="#71486d"></path><path d="M900 114.6L915.7 275.4L900 101.9Z" fill="#262625" stroke="#71486d"></path><path d="M900 346.1L777.4 305.7L900 352.7Z" fill="#222222" stroke="#71486d"></path><path d="M900 352.7L777.4 305.7L759.7 327.7Z" fill="#262625" stroke="#71486d"></path><path d="M886.7 450L900 352.7L759.7 327.7Z" fill="#2b2b29" stroke="#71486d"></path><path d="M900 346.1L900 352.7L915.7 275.4Z" fill="#262625" stroke="#71486d"></path><path d="M900 101.9L900 0L793.4 0Z" fill="#31312e" stroke="#71486d"></path><path d="M915.7 275.4L900 0L900 101.9Z" fill="#33332f" stroke="#71486d"></path><path d="M67.6 253.4L80.3 377.7L156.3 283.4Z" fill="#33332f" stroke="#71486d"></path><path d="M80.3 377.7L122.6 450L211.9 418.7Z" fill="#222222" stroke="#71486d"></path><path d="M915.7 275.4L900 -27.7L900 0Z" fill="#242423" stroke="#71486d"></path><path d="M900 0L900 -27.7L826.4 -29.7Z" fill="#272726" stroke="#71486d"></path><path d="M67.6 253.4L0 348.4L80.3 377.7Z" fill="#2f2f2c" stroke="#71486d"></path><path d="M15.3 140.3L134.3 133.9L152.6 98.6Z" fill="#31312e" stroke="#71486d"></path><path d="M23.3 185.6L23.3 197.1L112.9 188.9Z" fill="#222222" stroke="#71486d"></path><path d="M80.3 377.7L105.3 450L122.6 450Z" fill="#2f2f2c" stroke="#71486d"></path><path d="M122.6 450L105.3 450L153.6 460.7Z" fill="#262625" stroke="#71486d"></path><path d="M0 124.3L15.3 140.3L152.6 98.6Z" fill="#272726" stroke="#71486d"></path><path d="M23.3 185.6L0 182.1L23.3 197.1Z" fill="#292928" stroke="#71486d"></path><path d="M303.7 475.7L886.7 450L723.4 450Z" fill="#2d2d2b" stroke="#71486d"></path><path d="M723.4 450L886.7 450L759.7 327.7Z" fill="#262625" stroke="#71486d"></path><path d="M900 352.7L900 450L915.7 275.4Z" fill="#33332f" stroke="#71486d"></path><path d="M0 148.9L0 182.1L23.3 185.6Z" fill="#2f2f2c" stroke="#71486d"></path><path d="M23.3 197.1L0 209.6L67.6 253.4Z" fill="#353531" stroke="#71486d"></path><path d="M80.3 377.7L0 410.7L105.3 450Z" fill="#272726" stroke="#71486d"></path><path d="M0 182.1L0 209.6L23.3 197.1Z" fill="#2d2d2b" stroke="#71486d"></path><path d="M303.7 475.7L900 450L886.7 450Z" fill="#2f2f2c" stroke="#71486d"></path><path d="M886.7 450L900 450L900 352.7Z" fill="#292928" stroke="#71486d"></path><path d="M15.3 140.3L0 148.9L23.3 185.6Z" fill="#31312e" stroke="#71486d"></path><path d="M0 124.3L0 148.9L15.3 140.3Z" fill="#272726" stroke="#71486d"></path><path d="M0 0L0 124.3L152.6 98.6Z" fill="#31312e" stroke="#71486d"></path><path d="M0 209.6L0 348.4L67.6 253.4Z" fill="#272726" stroke="#71486d"></path><path d="M360.7 -22.7L0 0L146.6 0Z" fill="#31312e" stroke="#71486d"></path><path d="M146.6 0L0 0L152.6 98.6Z" fill="#262625" stroke="#71486d"></path><path d="M-0.7 0L0 0L360.7 -22.7Z" fill="#292928" stroke="#71486d"></path><path d="M470.3 -30.7L-0.7 0L360.7 -22.7Z" fill="#242423" stroke="#71486d"></path><path d="M0 0L-0.7 0L0 124.3Z" fill="#2b2b29" stroke="#71486d"></path><path d="M0 124.3L-0.7 0L0 148.9Z" fill="#272726" stroke="#71486d"></path><path d="M0 148.9L-0.7 0L0 182.1Z" fill="#33332f" stroke="#71486d"></path><path d="M0 182.1L-0.7 0L0 209.6Z" fill="#31312e" stroke="#71486d"></path><path d="M0 209.6L-0.7 0L0 348.4Z" fill="#33332f" stroke="#71486d"></path><path d="M-0.7 0L0 410.7L0 348.4Z" fill="#353531" stroke="#71486d"></path><path d="M0 348.4L0 410.7L80.3 377.7Z" fill="#222222" stroke="#71486d"></path><path d="M-0.7 0L0 450L0 410.7Z" fill="#292928" stroke="#71486d"></path><path d="M0 410.7L0 450L105.3 450Z" fill="#292928" stroke="#71486d"></path><path d="M105.3 450L0 450L153.6 460.7Z" fill="#242423" stroke="#71486d"></path><path d="M153.6 460.7L0 450L172.1 463.7Z" fill="#292928" stroke="#71486d"></path><path d="M172.1 463.7L0 450L303.7 475.7Z" fill="#262625" stroke="#71486d"></path></g></svg>