<svg id="visual" viewBox="0 0 900 450" width="900" height="450" xmlns="http://www.w3.org/2000/svg" xmlns:xlink="http://www.w3.org/1999/xlink" version="1.1"><g stroke-width="1" stroke-linejoin="bevel"><path d="M351 247L0 279L211 450Z" fill="#1b1b1b" stroke="#1b1b1b"></path><path d="M0 279L0 450L211 450Z" fill="#161616" stroke="#161616"></path><path d="M351 247L0 0L0 279Z" fill="#000000" stroke="#000000"></path><path d="M351 247L372 0L0 0Z" fill="#161616" stroke="#161616"></path><path d="M211 450L570 450L351 247Z" fill="#161616" stroke="#161616"></path><path d="M351 247L560 0L372 0Z" fill="#1e1e1e" stroke="#1e1e1e"></path><path d="M643 163L560 0L351 247Z" fill="#0d0d0d" stroke="#0d0d0d"></path><path d="M570 450L643 163L351 247Z" fill="#040404" stroke="#040404"></path><path d="M900 450L900 227L643 163Z" fill="#1e1e1e" stroke="#1e1e1e"></path><path d="M643 163L900 0L560 0Z" fill="#040404" stroke="#040404"></path><path d="M570 450L900 450L643 163Z" fill="#1b1b1b" stroke="#1b1b1b"></path><path d="M900 227L900 0L643 163Z" fill="#101010" stroke="#101010"></path></g></svg>